<svg id="svg" xmlns="http://www.w3.org/2000/svg" xmlns:xlink="http://www.w3.org/1999/xlink" width="400" height="400" viewBox="0, 0, 400,400"><g id="svgg"><path id="path0" d="M173.882 66.069 C 159.077 68.245,152.922 70.382,132.000 80.610 C 109.602 91.560,87.850 113.343,76.365 136.322 C 74.392 140.270,72.187 144.175,71.464 145.000 C 62.987 154.675,57.676 200.923,62.334 224.500 C 71.533 271.063,105.112 310.440,148.500 325.545 C 152.900 327.077,156.990 328.701,157.589 329.154 C 163.422 333.566,208.023 335.293,222.500 331.667 C 259.369 322.433,293.705 297.265,310.041 267.500 C 311.852 264.200,313.910 260.816,314.615 259.979 C 315.319 259.142,317.988 252.842,320.547 245.979 C 323.105 239.116,326.947 229.810,329.084 225.301 C 331.222 220.791,335.710 210.216,339.059 201.801 C 342.408 193.385,345.766 185.539,346.522 184.364 C 347.279 183.189,350.649 175.314,354.013 166.864 C 357.377 158.414,361.857 147.900,363.970 143.500 C 382.079 105.779,375.215 75.942,346.378 67.035 C 339.340 64.861,187.873 64.013,173.882 66.069 M326.540 86.750 C 325.610 97.127,325.130 98.824,322.927 99.523 C 321.896 99.851,320.081 101.481,318.895 103.147 C 316.743 106.170,308.970 106.689,300.748 104.360 C 294.157 102.493,307.363 84.881,318.308 80.941 C 327.253 77.721,327.344 77.785,326.540 86.750 M348.927 85.942 C 353.492 89.557,358.576 98.819,359.525 105.250 L 360.227 110.000 355.753 110.000 C 346.775 110.000,341.896 108.856,341.018 106.547 C 340.566 105.359,339.019 102.988,337.580 101.277 C 334.877 98.065,334.738 95.555,336.587 83.307 L 337.069 80.113 341.125 81.544 C 343.356 82.331,346.866 84.310,348.927 85.942 M215.242 93.450 C 293.279 107.364,328.421 202.909,278.706 266.000 C 234.784 321.740,148.877 319.372,106.840 261.262 C 81.587 226.353,80.621 176.176,104.517 140.591 C 129.469 103.434,171.315 85.618,215.242 93.450 M309.711 113.989 C 312.026 113.995,314.366 114.563,314.910 115.250 C 315.454 115.938,317.515 118.374,319.488 120.664 L 323.077 124.828 322.126 132.494 C 320.928 142.143,320.966 142.114,314.167 138.427 C 307.427 134.772,302.048 128.165,299.669 120.618 C 297.262 112.984,297.363 112.633,301.750 113.358 C 303.813 113.699,307.395 113.983,309.711 113.989 M352.250 118.510 C 365.589 119.981,350.746 139.428,334.594 141.642 L 330.154 142.251 331.053 138.375 C 331.548 136.244,331.963 132.780,331.976 130.679 C 332.007 125.664,339.949 116.982,344.000 117.534 C 345.375 117.722,349.087 118.161,352.250 118.510 M145.000 181.487 L 145.000 230.973 148.321 232.361 C 151.843 233.832,173.013 239.000,175.519 239.000 C 176.774 239.000,177.000 236.174,177.000 220.500 L 177.000 202.000 189.500 202.000 C 196.375 202.000,202.000 202.255,202.000 202.566 C 202.000 202.877,201.559 203.955,201.021 204.961 C 200.482 205.967,196.885 218.650,193.028 233.145 C 189.170 247.640,185.278 261.163,184.379 263.196 C 183.480 265.229,182.972 267.484,183.249 268.207 C 183.672 269.309,210.038 276.109,213.566 276.025 C 215.385 275.982,218.595 266.456,225.537 240.500 C 229.214 226.750,232.828 214.150,233.568 212.500 C 234.794 209.764,244.997 172.501,244.999 170.750 C 245.000 170.338,229.700 170.000,211.000 170.000 L 177.000 170.000 177.000 167.000 L 177.000 164.000 207.519 164.000 L 238.038 164.000 237.416 161.250 C 236.815 158.590,236.221 156.375,231.655 139.750 L 229.526 132.000 187.263 132.000 L 145.000 132.000 145.000 181.487 " stroke="none" fill="#000000" fill-rule="evenodd"></path></g></svg>
